<svg width="24" height="24" viewBox="0 0 24 24" fill="none" xmlns="http://www.w3.org/2000/svg">
<path d="M12 2C10.9 2 10 2.9 10 4C10 4.5 10.2 4.9 10.5 5.2C9.7 5.6 9 6.2 8.5 7C7.8 6.4 6.9 6 6 6C4.3 6 3 7.3 3 9C3 10.1 3.6 11.1 4.5 11.7C4.2 12.1 4 12.6 4 13.2C4 14.8 5.2 16 6.8 16C7.1 16 7.4 15.9 7.7 15.8C8.3 17.8 10 19.2 12 19.2C14 19.2 15.7 17.8 16.3 15.8C16.6 15.9 16.9 16 17.2 16C18.8 16 20 14.8 20 13.2C20 12.6 19.8 12.1 19.5 11.7C20.4 11.1 21 10.1 21 9C21 7.3 19.7 6 18 6C17.1 6 16.2 6.4 15.5 7C15 6.2 14.3 5.6 13.5 5.2C13.8 4.9 14 4.5 14 4C14 2.9 13.1 2 12 2Z" fill="currentColor"/>
<path d="M10.5 8.5C10.5 9.3 11.2 10 12 10C12.8 10 13.5 9.3 13.5 8.5" stroke="rgba(255,255,255,0.6)" stroke-width="0.8" fill="none"/>
<path d="M9 12C9 12.8 9.7 13.5 10.5 13.5" stroke="rgba(255,255,255,0.6)" stroke-width="0.8" fill="none"/>
<path d="M15 12C15 12.8 14.3 13.5 13.5 13.5" stroke="rgba(255,255,255,0.6)" stroke-width="0.8" fill="none"/>
</svg>