<svg width="24" height="24" viewBox="0 0 24 24" fill="none" xmlns="http://www.w3.org/2000/svg">
<path d="M12 2L13.09 8.26L22 9L13.09 9.74L12 16L10.91 9.74L2 9L10.91 8.26L12 2Z" fill="#44E5FF" opacity="0.3"/>
<path d="M7 14L9 12L7 10L8.5 8.5L11 11L16.5 5.5C17.3 4.7 18.7 4.7 19.5 5.5C20.3 6.3 20.3 7.7 19.5 8.5L14 14L11 11L8.5 13.5L7 14Z" fill="#44E5FF"/>
<path d="M3 17.25V21H6.75L16.81 10.94L13.06 7.19L3 17.25Z" fill="#44E5FF"/>
<path d="M20.71 5.63C21.1 5.24 21.1 4.61 20.71 4.22C20.32 3.83 19.69 3.83 19.3 4.22L18.37 5.15L19.78 6.56L20.71 5.63Z" fill="#44E5FF"/>
</svg>